<svg viewBox="0 0 560 480" xmlns="http://www.w3.org/2000/svg" role="img" aria-label="Contact — connection motif">
  <defs>
    <radialGradient id="coA" cx="26%" cy="30%" r="55%"><stop offset="0%" stop-color="#2FB3B8" stop-opacity="0.85"/><stop offset="100%" stop-color="#2FB3B8" stop-opacity="0"/></radialGradient>
    <radialGradient id="coB" cx="78%" cy="30%" r="55%"><stop offset="0%" stop-color="#7A4FD0" stop-opacity="0.8"/><stop offset="100%" stop-color="#7A4FD0" stop-opacity="0"/></radialGradient>
    <radialGradient id="coC" cx="72%" cy="82%" r="58%"><stop offset="0%" stop-color="#E0894E" stop-opacity="0.85"/><stop offset="100%" stop-color="#E0894E" stop-opacity="0"/></radialGradient>
    <radialGradient id="coD" cx="24%" cy="80%" r="55%"><stop offset="0%" stop-color="#D24C86" stop-opacity="0.65"/><stop offset="100%" stop-color="#D24C86" stop-opacity="0"/></radialGradient>
    <radialGradient id="coCore" cx="50%" cy="46%" r="50%"><stop offset="0%" stop-color="#FBE7C6" stop-opacity="0.9"/><stop offset="45%" stop-color="#E7C888" stop-opacity="0.2"/><stop offset="100%" stop-color="#E7C888" stop-opacity="0"/></radialGradient>
  </defs>
  <rect width="560" height="480" rx="14" fill="#141319"/>
  <rect width="560" height="480" rx="14" fill="url(#coA)"/>
  <rect width="560" height="480" rx="14" fill="url(#coB)"/>
  <rect width="560" height="480" rx="14" fill="url(#coC)"/>
  <rect width="560" height="480" rx="14" fill="url(#coD)"/>
  <rect width="560" height="480" rx="14" fill="#0E0D12" opacity="0.30"/>
  <rect width="560" height="480" rx="14" fill="url(#coCore)"/>
  <!-- network of nodes converging to a central point -->
  <g stroke="#FDF4DF" stroke-width="1.3" opacity="0.55">
    <line x1="120" y1="130" x2="280" y2="220"/>
    <line x1="440" y1="120" x2="280" y2="220"/>
    <line x1="110" y1="300" x2="280" y2="220"/>
    <line x1="450" y1="310" x2="280" y2="220"/>
    <line x1="200" y1="360" x2="280" y2="220"/>
    <line x1="360" y1="360" x2="280" y2="220"/>
  </g>
  <g fill="#FBE6BE">
    <circle cx="120" cy="130" r="9" opacity="0.85"/>
    <circle cx="440" cy="120" r="9" opacity="0.85"/>
    <circle cx="110" cy="300" r="9" opacity="0.85"/>
    <circle cx="450" cy="310" r="9" opacity="0.85"/>
    <circle cx="200" cy="360" r="9" opacity="0.85"/>
    <circle cx="360" cy="360" r="9" opacity="0.85"/>
  </g>
  <circle cx="280" cy="220" r="26" fill="none" stroke="#FFF3D6" stroke-width="1.5" opacity="0.7"/>
  <circle cx="280" cy="220" r="13" fill="#FFF7E4"/>
  <text x="280" y="452" text-anchor="middle" fill="#EAD9B8" font-family="Georgia,serif" font-style="italic" font-size="16" opacity="0.85">let's begin the conversation</text>
</svg>
