<svg viewBox="0 0 560 480" xmlns="http://www.w3.org/2000/svg" role="img" aria-label="Content in your voice — waveform motif">
  <defs>
    <radialGradient id="ctA" cx="30%" cy="30%" r="55%"><stop offset="0%" stop-color="#2FB3B8" stop-opacity="0.85"/><stop offset="100%" stop-color="#2FB3B8" stop-opacity="0"/></radialGradient>
    <radialGradient id="ctB" cx="76%" cy="70%" r="58%"><stop offset="0%" stop-color="#7A4FD0" stop-opacity="0.8"/><stop offset="100%" stop-color="#7A4FD0" stop-opacity="0"/></radialGradient>
    <radialGradient id="ctC" cx="30%" cy="82%" r="58%"><stop offset="0%" stop-color="#E0894E" stop-opacity="0.8"/><stop offset="100%" stop-color="#E0894E" stop-opacity="0"/></radialGradient>
    <radialGradient id="ctD" cx="82%" cy="24%" r="55%"><stop offset="0%" stop-color="#D24C86" stop-opacity="0.65"/><stop offset="100%" stop-color="#D24C86" stop-opacity="0"/></radialGradient>
    <radialGradient id="ctCore" cx="50%" cy="48%" r="52%"><stop offset="0%" stop-color="#FBE7C6" stop-opacity="0.9"/><stop offset="45%" stop-color="#E7C888" stop-opacity="0.22"/><stop offset="100%" stop-color="#E7C888" stop-opacity="0"/></radialGradient>
  </defs>
  <rect width="560" height="480" rx="14" fill="#141319"/>
  <rect width="560" height="480" rx="14" fill="url(#ctA)"/>
  <rect width="560" height="480" rx="14" fill="url(#ctB)"/>
  <rect width="560" height="480" rx="14" fill="url(#ctC)"/>
  <rect width="560" height="480" rx="14" fill="url(#ctD)"/>
  <rect width="560" height="480" rx="14" fill="#0E0D12" opacity="0.30"/>
  <rect width="560" height="480" rx="14" fill="url(#ctCore)"/>
  <!-- centered waveform bars -->
  <g fill="#FDF4DF">
    <rect x="96"  y="215" width="10" height="50"  rx="5" opacity="0.35"/>
    <rect x="126" y="185" width="10" height="110" rx="5" opacity="0.5"/>
    <rect x="156" y="150" width="10" height="180" rx="5" opacity="0.65"/>
    <rect x="186" y="120" width="10" height="240" rx="5" opacity="0.8"/>
    <rect x="216" y="95"  width="10" height="290" rx="5" opacity="0.95"/>
    <rect x="246" y="130" width="10" height="220" rx="5" opacity="0.85"/>
    <rect x="276" y="170" width="10" height="140" rx="5" opacity="0.7"/>
    <rect x="306" y="120" width="10" height="240" rx="5" opacity="0.8"/>
    <rect x="336" y="95"  width="10" height="290" rx="5" opacity="0.95"/>
    <rect x="366" y="145" width="10" height="190" rx="5" opacity="0.75"/>
    <rect x="396" y="185" width="10" height="110" rx="5" opacity="0.55"/>
    <rect x="426" y="205" width="10" height="70"  rx="5" opacity="0.4"/>
    <rect x="456" y="222" width="10" height="36"  rx="5" opacity="0.3"/>
  </g>
  <text x="280" y="452" text-anchor="middle" fill="#EAD9B8" font-family="Georgia,serif" font-style="italic" font-size="16" opacity="0.85">content in your voice</text>
</svg>
